<?xml version="1.0" standalone="no"?>
<!DOCTYPE svg PUBLIC "-//W3C//DTD SVG 20010904//EN"
 "http://www.w3.org/TR/2001/REC-SVG-20010904/DTD/svg10.dtd">
<svg version="1.0" xmlns="http://www.w3.org/2000/svg"
 width="200.000000pt" height="200.000000pt" viewBox="0 0 200.000000 200.000000"
 preserveAspectRatio="xMidYMid meet">

<g transform="translate(0.000000,200.000000) scale(0.100000,-0.100000)"
fill="#000000" stroke="none">
<path d="M0 1000 l0 -1000 1000 0 1000 0 0 1000 0 1000 -1000 0 -1000 0 0
-1000z m1150 519 c59 -19 103 -46 144 -86 43 -41 89 -133 84 -167 -3 -24 -28
-47 -43 -39 -5 4 -7 3 -3 -2 7 -8 -27 -44 -44 -46 -19 -3 -24 -5 -37 -13 -10
-7 -12 -5 -6 5 5 8 5 11 0 7 -4 -4 -15 -2 -24 4 -13 10 -14 10 -3 -2 17 -19
15 -33 -3 -26 -8 3 -15 1 -15 -5 0 -6 -4 -8 -9 -4 -5 3 -13 0 -16 -6 -4 -5
-14 -8 -23 -4 -8 3 -19 0 -23 -7 -6 -9 -11 -9 -23 2 -14 11 -16 10 -10 -5 6
-15 3 -17 -24 -13 -20 3 -33 0 -36 -9 -6 -14 -34 -17 -60 -7 -9 3 -12 12 -8
22 5 14 4 15 -10 2 -8 -8 -13 -21 -10 -29 4 -9 1 -12 -7 -7 -6 4 -20 4 -29 0
-48 -21 -87 -8 -75 24 5 14 4 15 -8 6 -8 -6 -25 -15 -38 -19 -18 -5 -22 -4
-16 6 6 9 2 11 -12 7 -12 -3 -20 0 -20 7 0 10 7 11 24 4 37 -14 53 -11 46 7
-5 13 -7 13 -14 2 -8 -12 -13 -4 -10 15 1 5 -3 6 -8 3 -5 -4 -15 2 -21 11 -11
17 -11 17 -6 0 3 -10 2 -16 -3 -13 -9 6 -34 -18 -26 -25 2 -3 -5 -5 -16 -5
-18 0 -18 2 5 19 14 10 26 25 26 33 0 17 -5 17 -29 4 -13 -6 -24 -5 -37 5 -17
13 -17 14 -2 15 9 0 19 -6 22 -12 3 -7 4 -4 3 6 -1 10 4 21 12 24 8 2 11 0 8
-6 -4 -5 2 -12 13 -15 21 -6 27 7 9 19 -8 5 -4 13 11 24 14 10 20 22 15 29 -5
9 -15 5 -35 -14 -18 -17 -30 -23 -34 -16 -4 6 1 11 11 11 15 0 15 2 4 9 -10 7
-19 4 -28 -7 -8 -11 -12 -13 -13 -4 0 7 5 19 12 26 10 11 15 11 26 -1 8 -8 17
-11 20 -8 3 3 0 11 -6 17 -15 15 -15 25 1 31 6 2 5 3 -3 2 -8 -2 -24 -6 -35
-10 -14 -6 -12 -2 8 14 15 12 27 30 27 39 0 15 -2 15 -10 2 -11 -17 -13 -10
-4 14 8 20 34 -2 27 -24 -4 -13 -3 -13 5 0 6 8 8 18 5 23 -3 4 3 17 13 28 14
16 15 22 5 28 -10 7 -9 9 3 14 8 3 13 14 11 26 -2 11 3 22 11 25 9 3 12 1 9
-4 -3 -6 -1 -10 4 -10 6 0 11 4 11 8 0 5 10 8 23 7 12 -1 27 2 34 7 7 6 14 5
18 -3 4 -6 1 -16 -6 -21 -12 -8 -11 -9 1 -5 8 2 15 10 15 18 0 8 5 18 10 22 6
5 3 7 -6 4 -9 -3 -22 0 -29 6 -7 7 -10 7 -7 2 3 -6 -3 -12 -14 -12 -10 -1 -19
3 -19 8 0 6 4 8 9 4 5 -3 13 0 16 6 4 5 13 8 21 5 7 -3 16 -1 19 4 3 5 24 8
46 8 22 0 42 2 44 4 7 7 123 -10 165 -23z m-436 -117 c3 -5 -1 -9 -9 -9 -8 0
-15 4 -15 9 0 4 4 8 9 8 6 0 12 -4 15 -8z m41 -2 c-3 -5 -10 -10 -16 -10 -5 0
-9 5 -9 10 0 6 7 10 16 10 8 0 12 -4 9 -10z m649 -2 c-5 -10 -4 -10 6 -1 12
11 18 11 58 -3 9 -4 28 -8 42 -9 38 -4 79 -15 116 -30 28 -12 34 -19 34 -45 0
-63 -42 -108 -161 -170 -244 -127 -795 -226 -987 -176 -169 43 -220 84 -176
143 11 14 29 31 40 37 10 6 23 17 27 24 4 6 17 12 27 12 11 0 19 3 17 8 -1 4
1 8 6 10 4 1 16 11 27 22 12 12 25 18 30 15 6 -4 16 -3 23 2 30 19 37 11 37
-39 0 -64 18 -126 39 -132 41 -13 153 -26 216 -26 149 0 415 74 520 145 50 35
61 47 63 74 2 18 -3 50 -12 71 -8 21 -12 40 -9 44 4 3 1 6 -6 6 -9 0 -9 4 1
15 16 18 32 20 22 3z m-720 -34 c3 -8 2 -12 -4 -9 -6 3 -10 10 -10 16 0 14 7
11 14 -7z m-11 -39 c-7 -21 -12 -19 -10 4 0 11 5 18 9 15 4 -3 5 -11 1 -19z
m1095 -98 c50 -61 51 -82 8 -125 l-37 -37 17 34 c15 31 16 36 1 60 -24 40 -57
48 -106 24 -46 -23 -53 -20 -17 8 13 10 32 39 42 63 17 42 19 43 39 28 11 -8
35 -33 53 -55z m-1093 43 c-3 -5 -10 -10 -16 -10 -5 0 -9 5 -9 10 0 6 7 10 16
10 8 0 12 -4 9 -10z m1047 -107 c24 -22 23 -29 -10 -42 -37 -15 -85 0 -75 25
5 14 35 32 57 33 5 1 18 -6 28 -16z m-897 -83 c3 -5 1 -10 -4 -10 -6 0 -11 5
-11 10 0 6 2 10 4 10 3 0 8 -4 11 -10z m628 -10 c-31 -28 -37 -57 -19 -85 28
-43 90 -45 132 -6 12 11 26 16 33 12 7 -5 -16 -21 -61 -41 -91 -41 -180 -72
-186 -65 -3 3 0 5 6 5 21 0 52 39 52 65 0 58 -83 87 -128 45 -39 -36 -26 -83
31 -112 l29 -14 -75 -22 c-93 -27 -101 -27 -59 -2 26 16 32 26 32 55 0 28 -5
37 -30 50 -16 8 -37 15 -46 15 -26 0 -74 -50 -74 -77 0 -29 33 -63 63 -64 28
-1 -55 -24 -120 -33 -44 -6 -46 -6 -23 6 36 19 39 70 6 103 -33 33 -58 32 -98
-4 -30 -27 -31 -29 -18 -61 8 -19 25 -37 42 -44 26 -11 20 -13 -74 -24 -146
-17 -314 -16 -321 2 -4 10 3 13 29 9 49 -7 84 18 84 60 0 36 -7 49 -33 64 -14
7 9 11 90 16 100 6 287 36 461 73 40 9 121 33 180 54 59 21 109 39 111 39 3 1
-5 -8 -16 -19z m85 -16 c46 -32 16 -66 -38 -44 -43 18 -39 56 5 59 6 1 21 -6
33 -15z m157 -14 c-3 -5 -16 -10 -28 -9 -20 1 -20 2 3 9 14 4 26 8 28 9 2 1 0
-3 -3 -9z m-315 -55 c15 -18 9 -49 -11 -53 -9 -1 -26 6 -40 16 -20 17 -21 22
-10 36 17 20 45 21 61 1z m-170 -50 c17 -21 8 -49 -16 -49 -30 0 -54 26 -42
47 11 21 41 22 58 2z m-792 -41 c2 -22 -2 -33 -13 -38 -22 -8 -35 1 -35 24 0
56 43 68 48 14z m127 26 c5 -8 11 -8 20 0 10 8 15 8 21 -1 4 -8 3 -9 -4 -5 -7
4 -12 3 -12 -1 0 -5 -9 -14 -20 -21 -25 -15 -46 -6 -31 12 6 7 8 16 4 19 -3 4
-1 7 5 7 6 0 14 -5 17 -10z m457 -27 c27 -24 24 -63 -5 -63 -29 0 -47 18 -47
45 0 38 22 46 52 18z m-372 -22 c15 -29 12 -41 -12 -50 -29 -11 -50 5 -46 33
5 38 41 49 58 17z m760 -21 c0 -19 -48 -86 -85 -118 -75 -66 -235 -118 -337
-109 -61 5 -145 40 -192 80 l-30 24 73 7 c122 12 371 62 466 94 105 35 105 35
105 22z m-870 -26 c0 -8 -19 -13 -24 -6 -3 5 1 9 9 9 8 0 15 -2 15 -3z m7 -36
c-3 -8 -6 -5 -6 6 -1 11 2 17 5 13 3 -3 4 -12 1 -19z m862 -112 c19 -30 43
-65 55 -78 11 -13 30 -34 41 -47 l20 -24 -57 6 -58 6 -1 -67 c0 -37 -4 -75 -8
-86 -6 -16 -11 -14 -40 23 -39 49 -74 53 -79 11 -4 -34 -32 -110 -41 -110 -3
0 -15 15 -24 33 -28 51 -94 120 -106 113 -6 -4 -11 -18 -11 -31 0 -26 -37 -95
-51 -95 -5 0 -20 23 -34 51 -28 55 -46 59 -56 13 -3 -16 -11 -39 -17 -49 -8
-16 -11 2 -11 81 0 56 -2 107 -5 115 -2 8 -7 25 -10 39 l-5 26 69 -4 c38 -2
99 1 135 7 75 13 201 68 229 100 11 11 22 21 25 21 3 0 21 -25 40 -54z"/>
<path d="M844 1459 c-3 -6 -1 -16 4 -21 8 -8 11 -5 9 11 -1 24 -3 25 -13 10z"/>
<path d="M788 1437 c-3 -19 -2 -25 4 -19 6 6 8 18 6 28 -3 14 -5 12 -10 -9z"/>
<path d="M766 1205 c-9 -26 -7 -32 5 -12 6 10 9 21 6 23 -2 3 -7 -2 -11 -11z"/>
<path d="M1111 1154 c0 -11 3 -14 6 -6 3 7 2 16 -1 19 -3 4 -6 -2 -5 -13z"/>
<path d="M1140 1160 c-9 -6 -10 -10 -3 -10 6 0 15 5 18 10 8 12 4 12 -15 0z"/>
<path d="M850 1109 c-10 -17 -4 -29 14 -29 6 0 4 5 -4 10 -12 8 -11 10 7 10
12 0 23 -5 25 -11 2 -7 9 -5 18 5 11 15 11 17 -1 14 -8 -2 -13 2 -12 7 3 17
-38 12 -47 -6z"/>
<path d="M532 1221 c2 -7 7 -12 11 -12 12 1 9 15 -3 20 -7 2 -11 -2 -8 -8z"/>
<path d="M742 904 c-27 -19 -29 -64 -4 -87 23 -21 86 -22 106 -1 29 28 18 68
-25 89 -36 19 -49 19 -77 -1z m84 -25 c23 -25 9 -54 -27 -54 -17 0 -25 6 -27
23 -8 52 20 68 54 31z"/>
</g>
</svg>
